#N canvas 120 22 378 430 10;
#X obj 118 338 hsl 100 10 0 0.4 0 0 empty empty empty 0 0 0 10 -228856
-45076 -45076 0 1;
#X obj 63 360 *~ 0;
#X floatatom 115 351 5 0 0 0 - - -, f 5;
#X obj 63 380 dac~;
#X obj 63 263 osc~;
#X obj 63 312 +~ 0.25;
#X obj 63 331 cos~;
#X obj 138 81 metro 500;
#X floatatom 197 64 5 0 0 0 - - -, f 5;
#X obj 138 100 f;
#X obj 243 63 hsl 100 10 -9 9 0 1 empty empty empty 0 0 0 10 -228856
-45076 -45076 1900 0;
#X obj 240 75 int;
#X obj 138 159 *;
#X floatatom 267 114 3 0 0 0 - - -, f 3;
#X obj 240 94 t b f;
#X obj 138 140 >> 2;
#X obj 138 121 mod 16;
#X obj 108 100 + 10;
#X obj 63 128 moses 58;
#X floatatom 69 147 3 0 0 0 - - -, f 3;
#X obj 9 105 moses 48;
#X floatatom 9 124 3 0 0 0 - - -, f 3;
#X floatatom 108 147 3 0 0 0 - - -, f 3;
#X obj 63 165 + 12;
#X obj 63 9 loadbang;
#X obj 63 209 +;
#X obj 63 293 *~;
#X obj 115 242 osc~ 0.1;
#X obj 115 261 +~ 1.3;
#X obj 63 190 t b f;
#X floatatom 63 247 5 0 0 0 - - -, f 5;
#X obj 63 228 mtof;
#X obj 189 25 r roll;
#X obj 9 86 abs;
#X obj 189 44 abs;
#X obj 240 44 expr ($f1/360)*1;
#X msg 63 67 48;
#X obj 115 318 abs;
#X obj 115 298 r color;
#X obj 9 67 r yaw;
#X obj 240 25 r pitch;
#X obj 138 64 tgl 15 0 empty empty empty 17 7 0 10 -262144 -1 -1 0
1;
#X connect 0 0 1 1;
#X connect 0 0 2 0;
#X connect 1 0 3 0;
#X connect 1 0 3 1;
#X connect 4 0 26 0;
#X connect 5 0 6 0;
#X connect 6 0 1 0;
#X connect 7 0 9 0;
#X connect 9 0 16 0;
#X connect 10 0 11 0;
#X connect 11 0 14 0;
#X connect 12 0 29 0;
#X connect 14 0 12 0;
#X connect 14 1 12 1;
#X connect 14 1 13 0;
#X connect 15 0 12 0;
#X connect 16 0 15 0;
#X connect 16 0 17 0;
#X connect 17 0 9 1;
#X connect 18 0 19 0;
#X connect 18 0 23 0;
#X connect 18 1 22 0;
#X connect 20 0 21 0;
#X connect 20 1 18 0;
#X connect 23 0 25 0;
#X connect 24 0 36 0;
#X connect 24 0 41 0;
#X connect 25 0 31 0;
#X connect 26 0 5 0;
#X connect 27 0 28 0;
#X connect 28 0 26 1;
#X connect 29 0 25 0;
#X connect 29 1 25 1;
#X connect 31 0 4 0;
#X connect 31 0 30 0;
#X connect 32 0 34 0;
#X connect 33 0 20 0;
#X connect 34 0 7 1;
#X connect 34 0 8 0;
#X connect 35 0 10 0;
#X connect 36 0 18 0;
#X connect 37 0 0 0;
#X connect 38 0 37 0;
#X connect 39 0 33 0;
#X connect 40 0 35 0;
#X connect 41 0 7 0;
