#N canvas 24 428 633 368 10;
#X obj -42 65 bng 15 250 50 0 empty empty empty 17 7 0 10 -262144 -1
-1;
#X floatatom 6 201 5 0 0 0 - - -, f 5;
#X msg -42 84 1 10 \, 0 1000 10;
#X obj -42 106 vline~;
#X obj 191 279 dac~;
#X obj 6 222 mtof;
#X obj 6 243 osc~ 220;
#X obj 163 46 r pitch;
#X obj 221 47 r roll;
#X obj 282 48 r yaw;
#X obj 163 67 + 180;
#X obj 221 68 + 180;
#X obj 282 69 + 180;
#X floatatom 163 88 5 0 0 0 - - -, f 5;
#X floatatom 221 89 5 0 0 0 - - -, f 5;
#X floatatom 282 89 5 0 0 0 - - -, f 5;
#X obj 163 131 mtof;
#X obj 163 230 hip~ 1;
#X obj 163 254 clip~ -1 1;
#X obj 237 229 hip~ 1;
#X obj 237 253 clip~ -1 1;
#X obj -38 304 *~;
#X obj 163 181 osc~;
#X obj 163 155 +~;
#X obj 242 133 *~;
#X obj 163 205 *~ 0.5;
#X obj 222 108 / 50;
#X obj 282 108 * 0.2;
#X obj -42 46 metro 200;
#X obj -42 28 tgl 15 0 empty empty empty 17 7 0 10 -262144 -1 -1 0
1;
#X obj 58 36 +;
#X floatatom 58 55 5 0 0 0 - - -, f 5;
#X obj 68 74 +;
#X floatatom 68 93 5 0 0 0 - - -, f 5;
#X floatatom 73 131 5 0 0 0 - - -, f 5;
#X obj 73 112 +;
#X obj 79 150 / 3;
#X floatatom 79 170 5 0 0 0 - - -, f 5;
#X obj 84 189 + 180;
#X floatatom 84 209 5 0 0 0 - - -, f 5;
#X obj 163 108 / 20;
#X obj 6 181 / 2;
#X obj -42 7 loadbang;
#X connect 0 0 2 0;
#X connect 1 0 5 0;
#X connect 2 0 3 0;
#X connect 3 0 21 0;
#X connect 5 0 6 0;
#X connect 6 0 21 1;
#X connect 7 0 10 0;
#X connect 7 0 30 0;
#X connect 8 0 11 0;
#X connect 8 0 30 1;
#X connect 9 0 12 0;
#X connect 9 0 32 1;
#X connect 10 0 13 0;
#X connect 11 0 14 0;
#X connect 12 0 15 0;
#X connect 13 0 40 0;
#X connect 14 0 26 0;
#X connect 15 0 27 0;
#X connect 16 0 23 0;
#X connect 17 0 18 0;
#X connect 18 0 4 0;
#X connect 19 0 20 0;
#X connect 20 0 4 1;
#X connect 21 0 25 0;
#X connect 22 0 25 0;
#X connect 23 0 22 0;
#X connect 24 0 23 1;
#X connect 25 0 17 0;
#X connect 25 0 19 0;
#X connect 26 0 24 0;
#X connect 27 0 24 1;
#X connect 28 0 0 0;
#X connect 29 0 28 0;
#X connect 30 0 31 0;
#X connect 31 0 32 0;
#X connect 32 0 33 0;
#X connect 33 0 35 0;
#X connect 34 0 36 0;
#X connect 35 0 34 0;
#X connect 36 0 37 0;
#X connect 37 0 38 0;
#X connect 38 0 39 0;
#X connect 39 0 41 0;
#X connect 40 0 16 0;
#X connect 41 0 1 0;
#X connect 42 0 29 0;
