#N canvas 92 22 437 324 10;
#X obj 12 51 bng 15 250 50 0 empty empty empty 17 7 0 10 -262144 -1
-1;
#X floatatom 129 54 5 0 0 0 - - -, f 5;
#X msg 12 70 1 10 \, 0 1000 10;
#X obj 12 92 vline~;
#X obj 245 265 dac~;
#X obj 129 75 mtof;
#X obj 129 96 osc~ 220;
#X floatatom 217 74 5 0 0 0 - - -, f 5;
#X floatatom 275 75 5 0 0 0 - - -, f 5;
#X floatatom 336 75 5 0 0 0 - - -, f 5;
#X obj 217 117 mtof;
#X obj 217 216 hip~ 1;
#X obj 217 240 clip~ -1 1;
#X obj 291 215 hip~ 1;
#X obj 291 239 clip~ -1 1;
#X obj 12 125 *~;
#X obj 217 167 osc~;
#X obj 217 141 +~;
#X obj 296 119 *~;
#X obj 217 191 *~ 0.5;
#X obj 276 94 / 50;
#X obj 217 94 / 50;
#X obj 336 94 * 0.2;
#X obj 12 30 r color;
#X obj 129 32 r color;
#X obj 217 53 * 360;
#X obj 275 54 * 360;
#X obj 336 54 * 360;
#X obj 217 32 r red;
#X obj 275 33 r green;
#X obj 336 34 r blue;
#X connect 0 0 2 0;
#X connect 1 0 5 0;
#X connect 2 0 3 0;
#X connect 3 0 15 0;
#X connect 5 0 6 0;
#X connect 6 0 15 1;
#X connect 7 0 21 0;
#X connect 8 0 20 0;
#X connect 9 0 22 0;
#X connect 10 0 17 0;
#X connect 11 0 12 0;
#X connect 12 0 4 0;
#X connect 13 0 14 0;
#X connect 14 0 4 1;
#X connect 15 0 19 0;
#X connect 16 0 19 0;
#X connect 17 0 16 0;
#X connect 18 0 17 1;
#X connect 19 0 11 0;
#X connect 19 0 13 0;
#X connect 20 0 18 0;
#X connect 21 0 10 0;
#X connect 22 0 18 1;
#X connect 23 0 0 0;
#X connect 24 0 1 0;
#X connect 25 0 7 0;
#X connect 26 0 8 0;
#X connect 27 0 9 0;
#X connect 28 0 25 0;
#X connect 29 0 26 0;
#X connect 30 0 27 0;
