#N canvas 411 22 713 856 12;
#X obj 451 175 delwrite~ b1 5000;
#X obj 68 555 vd~ b1;
#X obj 47 362 phasor~;
#X obj 45 398 *~ -1;
#X obj 45 420 +~ 1;
#X obj 145 512 sig~ 1;
#X obj 210 512 cos~;
#X obj 145 534 -~;
#X obj 145 556 *~ 0.5;
#X obj 68 577 *~;
#X obj 121 664 dac~;
#X obj 77 479 samphold~;
#X obj 45 512 *~;
#X obj 77 457 sig~;
#X floatatom 157 324 5 0 0 0 - - -;
#X floatatom 110 264 10 0 0 0 - - -;
#X floatatom 79 324 5 0 0 0 - - -;
#X floatatom 241 233 5 0 0 0 - - -;
#X obj 241 254 t b f;
#X obj 121 642 *~;
#X obj 157 324 / 44.1;
#X obj 455 535 vd~ b1;
#X obj 431 367 *~ -1;
#X obj 431 389 +~ 1;
#X obj 525 485 sig~ 1;
#X obj 595 411 cos~;
#X obj 525 507 -~;
#X obj 525 529 *~ 0.5;
#X obj 454 599 *~;
#X obj 467 445 samphold~;
#X obj 432 485 *~;
#X obj 467 423 sig~;
#X obj 452 313 +~ 0.5;
#X obj 452 335 wrap~;
#X obj 451 153 adc~;
#X obj 108 35 vsl 15 128 100 30000 0 0 empty empty empty 0 -8 0 8 -262144
-1 -1 0 1;
#X obj 125 172 t b f;
#X obj 241 155 vsl 15 73 -36 36 0 0 empty empty empty 0 -8 0 8 -262144
-1 -1 0 1;
#X obj 110 285 expr (pow(2 \, ($f2/12)) - 1) * (44100/$f1);
#X floatatom 140 598 5 0 0 0 - - -;
#X text 258 232 -36;
#X text 264 152 36;
#X text 127 32 30000;
#X text 125 152 100;
#X text 357 32 3.7.2.1. Granular live;
#X text 73 7 window width;
#X text 183 121 Transposition (half-steps);
#X text 249 554 another way to;
#X text 210 533 make a Hanning window;
#X text 357 70 www.pd-tutorial.com;
#X text 357 51 Johannes Kreidler;
#X obj 53 -124 r pitch;
#X obj 111 -123 r roll;
#X obj 172 -122 r yaw;
#X floatatom 53 -82 5 0 0 0 - - -;
#X floatatom 111 -81 5 0 0 0 - - -;
#X floatatom 172 -81 5 0 0 0 - - -;
#X text 51 -138 carrier;
#X text 110 -139 modulator;
#X text 169 -138 frequency;
#X obj 172 -62 * 0.2;
#X text 169 -149 yaw;
#X text 109 -149 roll;
#X text 51 -149 pitch;
#X obj 53 -103 + 180;
#X obj 111 -102 + 180;
#X obj 172 -101 + 180;
#X obj 112 -62 / 10;
#X obj 53 -62 * 100;
#X connect 1 0 9 0;
#X connect 2 0 3 0;
#X connect 2 0 6 0;
#X connect 2 0 11 1;
#X connect 2 0 32 0;
#X connect 3 0 4 0;
#X connect 4 0 12 0;
#X connect 5 0 7 0;
#X connect 6 0 7 1;
#X connect 7 0 8 0;
#X connect 8 0 9 1;
#X connect 9 0 19 0;
#X connect 11 0 12 1;
#X connect 12 0 1 0;
#X connect 13 0 11 0;
#X connect 14 0 31 0;
#X connect 14 0 13 0;
#X connect 15 0 20 0;
#X connect 15 0 38 0;
#X connect 16 0 2 0;
#X connect 17 0 18 0;
#X connect 18 0 15 0;
#X connect 18 1 38 1;
#X connect 19 0 10 0;
#X connect 19 0 10 1;
#X connect 20 0 14 0;
#X connect 21 0 28 0;
#X connect 22 0 23 0;
#X connect 23 0 30 0;
#X connect 24 0 26 0;
#X connect 25 0 26 1;
#X connect 26 0 27 0;
#X connect 27 0 28 1;
#X connect 28 0 19 0;
#X connect 29 0 30 1;
#X connect 30 0 21 0;
#X connect 31 0 29 0;
#X connect 32 0 33 0;
#X connect 33 0 22 0;
#X connect 33 0 29 1;
#X connect 33 0 25 0;
#X connect 34 0 0 0;
#X connect 34 1 0 0;
#X connect 35 0 36 0;
#X connect 36 0 17 0;
#X connect 36 1 15 0;
#X connect 37 0 17 0;
#X connect 38 0 16 0;
#X connect 39 0 19 1;
#X connect 51 0 64 0;
#X connect 52 0 65 0;
#X connect 53 0 66 0;
#X connect 54 0 68 0;
#X connect 55 0 67 0;
#X connect 56 0 60 0;
#X connect 60 0 39 0;
#X connect 64 0 54 0;
#X connect 65 0 55 0;
#X connect 66 0 56 0;
#X connect 67 0 37 0;
#X connect 68 0 35 0;
