#N canvas 117 60 800 657 10;
#X declare -lib mediasettings;
#X obj -26 29 r trigger;
#X obj -26 50 bng 15 250 50 0 empty empty empty 17 7 0 10 -262144 -1
-1;
#X obj 91 31 r midinote;
#X floatatom 91 53 5 0 0 0 - - -;
#X msg -26 69 1 10 \, 0 1000 10;
#X obj -26 91 vline~;
#X obj 207 264 dac~;
#X obj 91 74 mtof;
#X obj 91 95 osc~ 220;
#X obj 179 31 r pitch;
#X obj 237 32 r roll;
#X obj 298 33 r yaw;
#X obj 179 52 + 180;
#X obj 237 53 + 180;
#X obj 298 54 + 180;
#X floatatom 179 73 5 0 0 0 - - -;
#X floatatom 237 74 5 0 0 0 - - -;
#X floatatom 298 74 5 0 0 0 - - -;
#X obj 179 116 mtof;
#X obj 179 215 hip~ 1;
#X obj 179 239 clip~ -1 1;
#X obj 253 214 hip~ 1;
#X obj 253 238 clip~ -1 1;
#X obj -26 124 *~;
#X obj 179 166 osc~;
#X obj 179 140 +~;
#X text 177 17 carrier;
#X text 236 16 modulator;
#X text 295 17 frequency;
#X obj 179 190 *~ 0.5;
#X obj 238 93 / 50;
#X obj 179 93 / 50;
#X obj 298 93 * 0.2;
#X text 295 6 yaw;
#X text 235 6 roll;
#X text 177 6 pitch;
#X obj 381 160 loadbang;
#X msg 381 183 bang;
#X obj 381 283 print;
#X text 428 182 get next item in list of loaded libs;
#X text 440 206 start at the top of the list again;
#X obj 356 198 bng 15 250 50 0 empty empty empty 17 7 0 10 -262144
-1 -1;
#X obj 446 388 print;
#X obj 508 276 bng 15 250 50 0 empty empty empty 17 7 0 10 -262144
-1 -1;
#X obj 48 583 audiosettings;
#X text 28 342 audiosettings - query and manipulate audio-settings
;
#X msg 98 380 listdrivers;
#X msg 100 409 listdevices;
#X msg 105 439 listparams;
#X text 179 378 get available audio drivers;
#X text 181 408 get available devices for current driver;
#X text 183 441 get available parameters for current driver/device
;
#X obj 48 605 print info;
#N canvas 6 50 809 300 set 0;
#X msg 123 54 driver ALSA;
#X obj 61 259 outlet;
#X text 207 55 set driver to "ALSA" (if possible);
#X msg 130 119 params @samplerate 48000;
#X text 288 118 set samplerate to 48kHz;
#X text 432 165 choose (input-device #1) AND (output-device #2) AND
(samplerate=48kHz);
#X msg 135 168 params @input 0 2 @output 0 2 @samplerate 48000;
#X connect 0 0 1 0;
#X connect 3 0 1 0;
#X connect 6 0 1 0;
#X restore 114 503 pd set;
#X msg 140 549 getdriver;
#X msg 175 588 bang;
#X msg 239 552 params @samplerate 48000;
#X obj 381 231 import mediasettings;
#X obj 344 49 vsl 15 128 0 127 0 0 empty empty empty 0 -9 0 10 -262144
-1 -1 0 1;
#X obj 235 131 mtof;
#X obj 235 152 +~;
#X obj 235 178 phasor~;
#X msg 447 317 params @input 0 2 @output 1 2;
#X connect 0 0 1 0;
#X connect 1 0 4 0;
#X connect 2 0 3 0;
#X connect 3 0 7 0;
#X connect 4 0 5 0;
#X connect 5 0 23 0;
#X connect 7 0 8 0;
#X connect 8 0 23 1;
#X connect 9 0 12 0;
#X connect 10 0 13 0;
#X connect 11 0 14 0;
#X connect 12 0 15 0;
#X connect 13 0 16 0;
#X connect 14 0 17 0;
#X connect 15 0 31 0;
#X connect 16 0 30 0;
#X connect 17 0 32 0;
#X connect 18 0 25 0;
#X connect 19 0 20 0;
#X connect 20 0 6 0;
#X connect 21 0 22 0;
#X connect 22 0 6 1;
#X connect 23 0 29 0;
#X connect 24 0 29 0;
#X connect 25 0 24 0;
#X connect 29 0 19 0;
#X connect 30 0 59 0;
#X connect 31 0 18 0;
#X connect 32 0 29 1;
#X connect 32 0 58 0;
#X connect 36 0 37 0;
#X connect 37 0 57 0;
#X connect 41 0 57 0;
#X connect 43 0 62 0;
#X connect 44 0 52 0;
#X connect 46 0 44 0;
#X connect 47 0 44 0;
#X connect 48 0 44 0;
#X connect 53 0 44 0;
#X connect 54 0 44 0;
#X connect 55 0 44 0;
#X connect 56 0 44 0;
#X connect 57 0 38 0;
#X connect 57 1 43 0;
#X connect 58 0 6 1;
#X connect 59 0 60 0;
#X connect 60 0 61 0;
#X connect 61 0 21 0;
#X connect 62 0 42 0;
