#N canvas 347 131 800 657 10;
#X obj -26 29 r trigger;
#X obj -26 50 bng 15 250 50 0 empty empty empty 17 7 0 10 -262144 -1
-1;
#X obj 91 31 r midinote;
#X floatatom 91 53 5 0 0 0 - - -;
#X msg -26 69 1 10 \, 0 1000 10;
#X obj -26 91 vline~;
#X obj 207 264 dac~;
#X obj 91 74 mtof;
#X obj 91 95 osc~ 220;
#X obj 179 31 r pitch;
#X obj 237 32 r roll;
#X obj 298 33 r yaw;
#X obj 179 52 + 180;
#X obj 237 53 + 180;
#X obj 298 54 + 180;
#X floatatom 179 73 5 0 0 0 - - -;
#X floatatom 237 74 5 0 0 0 - - -;
#X floatatom 298 74 5 0 0 0 - - -;
#X obj 179 116 mtof;
#X obj 179 215 hip~ 1;
#X obj 179 239 clip~ -1 1;
#X obj 253 214 hip~ 1;
#X obj 253 238 clip~ -1 1;
#X obj -26 124 *~;
#X obj 179 166 osc~;
#X obj 179 140 +~;
#X obj 258 118 *~;
#X text 177 17 carrier;
#X text 236 16 modulator;
#X text 295 17 frequency;
#X obj 179 190 *~ 0.5;
#X obj 238 93 / 50;
#X obj 179 93 / 50;
#X obj 298 93 * 0.2;
#X text 295 6 yaw;
#X text 235 6 roll;
#X text 177 6 pitch;
#X msg 416 94 params @input 0 2 @output 0 1;
#X obj 416 121 audiosettings;
#X obj 416 66 loadbang;
#X connect 0 0 1 0;
#X connect 1 0 4 0;
#X connect 2 0 3 0;
#X connect 3 0 7 0;
#X connect 4 0 5 0;
#X connect 5 0 23 0;
#X connect 7 0 8 0;
#X connect 8 0 23 1;
#X connect 9 0 12 0;
#X connect 10 0 13 0;
#X connect 11 0 14 0;
#X connect 12 0 15 0;
#X connect 13 0 16 0;
#X connect 14 0 17 0;
#X connect 15 0 32 0;
#X connect 16 0 31 0;
#X connect 17 0 33 0;
#X connect 18 0 25 0;
#X connect 19 0 20 0;
#X connect 20 0 6 0;
#X connect 21 0 22 0;
#X connect 22 0 6 1;
#X connect 23 0 30 0;
#X connect 24 0 30 0;
#X connect 25 0 24 0;
#X connect 26 0 25 1;
#X connect 30 0 19 0;
#X connect 30 0 21 0;
#X connect 31 0 26 0;
#X connect 32 0 18 0;
#X connect 33 0 26 1;
#X connect 37 0 38 0;
#X connect 39 0 37 0;
